<svg  id="female-consultant"><path fill="#8a6845" d="M7 23V9C7 4.3 10.8.5 15.5.5S24 4.3 24 9v14"></path>
  <path fill="#745539" d="M11 9.5V12c0 2.3 1.2 4.3 3 5.5v3.6l-2 .1v.5c.1.3.2 1.6.3 1.8h10.3c.1-.3.2-.6.3-.8l-1.9-.6v-4.6c1.8-1.2 3-3.2 3-5.5V9.5H11z">
  </path><path fill="#745539" d="M16.5.6c-.3 0-.7-.1-1-.1C10.8.5 7 4.3 7 9v14h2V9c0-4.4 3.3-7.9 7.5-8.4z"></path>
  <path fill="#607d95" d="M24.6 22.4L21 21.2c-.5 2.8-5.4 5-5.4 5s-4.9-2.2-5.4-5l-3.6 1.2C4.4 23 3 25 3 27.1v4.4h25v-4.4c0-2.1-1.4-4.1-3.4-4.7z"></path>
  <path fill="#4b6c85" d="M14.5 25.7c-1.1-.6-2.8-1.7-3.8-3.1-.3-.5-.6-.9-.7-1.4l-3.6 1.2C4.4 23 3 25 3 27.1v4.4h2v-4.1c0-1.7 1.1-3.3 2.7-3.8.8-.3 1.7-.1 2.4.5l1.2.9c1.2.8 2.7 1.2 4.2 1.2 0 0-.7-.3-1-.5z"></path>
  <path fill="#004463" d="M20.5 16h-3c-.3 0-.5-.2-.5-.5s.2-.5.5-.5h3c1.4 0 2.5-1.1 2.5-2.5v-2c0-.3.2-.5.5-.5s.5.2.5.5v2c0 1.9-1.6 3.5-3.5 3.5z"></path>
  <path fill="#f0c9ae" d="M19 20.5v-3h-7v3l-2 .6c.5 2.8 5.4 5 5.4 5s4.9-2.2 5.4-5l-1.8-.6zM20.9 21.2h.1z"></path>
  <path fill="#4b6c85" d="M28 31.5v-4.4c0-.9-.3-1.8-.7-2.6-3 .4-5.3 2.9-5.3 6v1h6zM3 31.5v-4.4c0-.9.3-1.8.7-2.6 3 .4 5.3 2.9 5.3 6v1H3z"></path>
  <path fill="#40657c" d="M5.7 25.2c-.6-.3-1.3-.5-2-.6l-.3.6v.1c-.1.2-.1.4-.2.5 0 .1 0 .2-.1.2 0 .1-.1.3-.1.4V31.5h2v-4.1c0-.8.3-1.6.7-2.2z"></path><path fill="#607d95" d="M10 12.5H8c-.6 0-1-.4-1-1v-1c0-.6.4-1 1-1h2v3zM24 12.5h-3v-3h2c.6 0 1 .4 1 1v2z"></path><path fill="#e2b698" d="M14 18.5v-1h-2v3l-2 .6c.5 2.8 5.4 5 5.4 5h.1c.2-.1.5-.2.9-.5-1.1-.6-2.8-1.7-3.8-3-.2-.3-.1-.7.2-.8l.3-.1c.4-.1.7-.5.7-.9v-2.3z"></path><path fill="#e2b698" d="M19 17.5h-7v1c1 .6 2.2 1 3.5 1 1.3 0 2.5-.4 3.5-1v-1z"></path><path fill="#f0c9ae" d="M20.9 21.2h.1zM15 9.5c-1.9 0-3.4-1.3-3.9-3H11v1c0 1.1-.9 2-2 2V12c0 3.6 2.9 6.5 6.5 6.5S22 15.6 22 12V9.5h-7z"></path><path fill="#e2b698" d="M13.6 17.9C11.9 16 11 13.6 11 11.1v-.9c.3-.2.5-.4.7-.6.7 1.1 1.9 1.9 3.3 1.9h7v-2h-7c-.2 0-.4 0-.6-.1-.1 0-.3-.1-.4-.1-.1 0-.1 0-.2-.1-.2-.1-.3-.1-.5-.2h-.1c-.2-.1-.3-.2-.4-.3-.1 0-.1-.1-.2-.1-.2-.2-.5-.4-.7-.7-.1-.2-.3-.4-.4-.6 0-.1-.1-.1-.1-.2-.1-.3-.2-.5-.3-.8H11v1c0 1.1-.9 2-2 2V12.9c0 .2 0 .3.1.5 0 .1 0 .2.1.2 0 .1.1.3.1.4 0 .1.1.2.1.2.1.1.1.3.2.4 0 .1.1.1.1.2.1.2.2.3.2.4l.1.1c.1.2.2.3.4.5.9 1.1 2.1 1.9 3.6 2.3l-.4-.2z"></path><path fill="#004463" d="M22.4 14.1c-.5.5-1.1.9-1.9.9h-3c-.3 0-.5.2-.5.5s.2.5.5.5h3c1.3 0 2.5-.8 3.1-1.9h-1.2z"></path><path fill="#607d95" d="M17.5 16.5h-1c-.6 0-1-.4-1-1s.4-1 1-1h1c.6 0 1 .4 1 1s-.4 1-1 1z"></path></svg>